<svg width="126" height="24" viewBox="0 0 126 24" fill="none" xmlns="http://www.w3.org/2000/svg">
<circle cx="3.27183" cy="3.27183" r="3.27183" transform="matrix(0.704777 0.709428 -0.704777 0.709428 10.5679 0)" fill="#EDE3C8"/>
<ellipse cx="18.5652" cy="4.64924" rx="2.49108" ry="2.50752" fill="#EDE3C8"/>
<circle cx="3.27183" cy="3.27183" r="3.27183" transform="matrix(0.704777 0.709428 0.704777 -0.709428 5.9552 19.3577)" fill="#EDE3C8"/>
<ellipse cx="2.49108" cy="19.3453" rx="2.49108" ry="2.50752" fill="#EDE3C8"/>
<ellipse cx="0.815844" cy="0.810495" rx="0.815844" ry="0.810495" transform="matrix(0 -1 -1 0 3.39941 12.9114)" fill="#EDE3C8"/>
<ellipse cx="0.815844" cy="0.810495" rx="0.815844" ry="0.810495" transform="matrix(0 -1 -1 0 19.4734 12.9114)" fill="#EDE3C8"/>
<circle cx="1.81768" cy="1.81768" r="1.81768" transform="matrix(0.704777 0.709428 -0.704777 0.709428 10.5679 9.42212)" fill="#EDE3C8"/>
<path d="M48.5483 14.7321C48.5483 15.2208 48.4849 15.662 48.3579 16.0555C48.2373 16.4428 48.0754 16.7855 47.8723 17.0839C47.6692 17.3822 47.4312 17.6361 47.1582 17.8456C46.8853 18.0551 46.6028 18.2264 46.3108 18.3597C46.0188 18.493 45.7205 18.5914 45.4158 18.6549C45.1174 18.7184 44.835 18.7501 44.5684 18.7501H35.0184V16.2745H44.5684C45.0445 16.2745 45.4126 16.1349 45.6729 15.8556C45.9395 15.5763 46.0728 15.2018 46.0728 14.7321C46.0728 14.5035 46.0379 14.2941 45.968 14.1036C45.8982 13.9132 45.7966 13.7482 45.6633 13.6085C45.5364 13.4689 45.3777 13.361 45.1873 13.2848C45.0032 13.2086 44.7969 13.1705 44.5684 13.1705H38.8745C38.4746 13.1705 38.043 13.1007 37.5796 12.9611C37.1162 12.8151 36.6846 12.5834 36.2847 12.266C35.8912 11.9486 35.5611 11.5329 35.2945 11.0187C35.0342 10.5045 34.9041 9.87612 34.9041 9.13344C34.9041 8.39077 35.0342 7.76553 35.2945 7.25772C35.5611 6.74356 35.8912 6.32779 36.2847 6.0104C36.6846 5.68667 37.1162 5.45499 37.5796 5.31534C38.043 5.16934 38.4746 5.09634 38.8745 5.09634H47.301V7.57192H38.8745C38.4048 7.57192 38.0367 7.71475 37.7701 8.00039C37.5098 8.28603 37.3797 8.66372 37.3797 9.13344C37.3797 9.60952 37.5098 9.9872 37.7701 10.2665C38.0367 10.5394 38.4048 10.6759 38.8745 10.6759H44.5684H44.5874C44.854 10.6823 45.1365 10.7204 45.4348 10.7902C45.7332 10.8537 46.0283 10.9552 46.3203 11.0949C46.6187 11.2345 46.9011 11.4122 47.1677 11.6281C47.4343 11.8375 47.6692 12.0914 47.8723 12.3898C48.0818 12.6881 48.2468 13.0309 48.3674 13.4181C48.488 13.8053 48.5483 14.2433 48.5483 14.7321ZM63.5926 17.5028C63.5926 17.6805 63.5609 17.8456 63.4974 17.9979C63.4339 18.1503 63.3451 18.2836 63.2308 18.3978C63.1166 18.5057 62.9833 18.5914 62.8309 18.6549C62.6786 18.7184 62.5167 18.7501 62.3453 18.7501H56.7658C56.2389 18.7501 55.7057 18.693 55.1661 18.5787C54.6266 18.4645 54.1029 18.2899 53.5951 18.0551C53.0936 17.8138 52.6207 17.5092 52.1764 17.141C51.7321 16.7728 51.3417 16.338 51.0053 15.8366C50.6752 15.3287 50.4149 14.7511 50.2245 14.1036C50.0341 13.4498 49.9389 12.723 49.9389 11.9232V5.09634H52.4144V11.9232C52.4144 12.6215 52.5097 13.2118 52.7001 13.6942C52.8969 14.1766 53.1444 14.5797 53.4428 14.9035C53.7411 15.2272 54.068 15.4811 54.4235 15.6652C54.7789 15.8492 55.1154 15.9857 55.4327 16.0746C55.7565 16.1635 56.0389 16.2206 56.2802 16.246C56.5277 16.265 56.6896 16.2745 56.7658 16.2745H61.1171V5.09634H63.5926V17.5028ZM79.7129 13.0372C79.7129 13.8688 79.5669 14.6337 79.2749 15.3319C78.9892 16.0302 78.5925 16.6332 78.0847 17.141C77.5769 17.6425 76.9739 18.036 76.2756 18.3217C75.5774 18.6073 74.8188 18.7501 74 18.7501H67.3159C67.1382 18.7501 66.9731 18.7184 66.8208 18.6549C66.6685 18.5914 66.5352 18.5057 66.4209 18.3978C66.313 18.2836 66.2273 18.1503 66.1638 17.9979C66.1003 17.8456 66.0686 17.6805 66.0686 17.5028V6.34366C66.0686 6.17227 66.1003 6.0104 66.1638 5.85806C66.2273 5.70572 66.313 5.57242 66.4209 5.45816C66.5352 5.3439 66.6685 5.25504 66.8208 5.19156C66.9731 5.12808 67.1382 5.09634 67.3159 5.09634H74C74.8188 5.09634 75.5774 5.23917 76.2756 5.52481C76.9739 5.81045 77.5769 6.20718 78.0847 6.71499C78.5925 7.21646 78.9892 7.81948 79.2749 8.52407C79.5669 9.22231 79.7129 9.98403 79.7129 10.8092V13.0372ZM77.2373 10.8092C77.2373 10.3268 77.1579 9.88564 76.9992 9.48574C76.8469 9.08584 76.6279 8.74624 76.3423 8.46694C76.0566 8.1813 75.7138 7.9623 75.3139 7.80996C74.9204 7.65127 74.4824 7.57192 74 7.57192H68.5442V16.2745H74C74.4824 16.2745 74.9204 16.1984 75.3139 16.046C75.7138 15.8873 76.0566 15.6683 76.3423 15.389C76.6279 15.1034 76.8469 14.7638 76.9992 14.3702C77.1579 13.9703 77.2373 13.526 77.2373 13.0372V10.8092ZM95.1475 18.7501H92.672V15.3986H83.9693V18.7501H81.4938V11.9232C81.4938 10.9267 81.6651 10.0094 82.0079 9.17153C82.3507 8.33364 82.8268 7.61318 83.4361 7.01016C84.0455 6.40713 84.766 5.93741 85.5975 5.60098C86.429 5.26456 87.3368 5.09634 88.3206 5.09634H93.9002C94.0716 5.09634 94.2335 5.12808 94.3858 5.19156C94.5382 5.25504 94.6715 5.3439 94.7857 5.45816C94.9 5.57242 94.9888 5.70572 95.0523 5.85806C95.1158 6.0104 95.1475 6.17227 95.1475 6.34366V18.7501ZM83.9693 12.923H92.672V7.57192H88.3206C88.2445 7.57192 88.0826 7.58462 87.835 7.61001C87.5938 7.62905 87.3114 7.68301 86.9876 7.77188C86.6703 7.86074 86.3338 7.99722 85.9784 8.1813C85.6229 8.36538 85.296 8.61929 84.9977 8.94302C84.6993 9.26674 84.4518 9.67299 84.255 10.1618C84.0645 10.6442 83.9693 11.2313 83.9693 11.9232V12.923ZM109.982 7.57192H104.527V18.7501H102.051V7.57192H96.5857V5.09634H109.982V7.57192ZM124.341 18.7501H121.866V15.3986H113.163V18.7501H110.687V11.9232C110.687 10.9267 110.859 10.0094 111.201 9.17153C111.544 8.33364 112.02 7.61318 112.63 7.01016C113.239 6.40713 113.96 5.93741 114.791 5.60098C115.623 5.26456 116.53 5.09634 117.514 5.09634H123.094C123.265 5.09634 123.427 5.12808 123.579 5.19156C123.732 5.25504 123.865 5.3439 123.979 5.45816C124.094 5.57242 124.182 5.70572 124.246 5.85806C124.309 6.0104 124.341 6.17227 124.341 6.34366V18.7501ZM113.163 12.923H121.866V7.57192H117.514C117.438 7.57192 117.276 7.58462 117.029 7.61001C116.787 7.62905 116.505 7.68301 116.181 7.77188C115.864 7.86074 115.527 7.99722 115.172 8.1813C114.816 8.36538 114.49 8.61929 114.191 8.94302C113.893 9.26674 113.645 9.67299 113.449 10.1618C113.258 10.6442 113.163 11.2313 113.163 11.9232V12.923Z" fill="#EDE3C8"/>
</svg>
