<svg width="90" height="30" viewBox="0 0 90 30" fill="none" xmlns="http://www.w3.org/2000/svg">
<path d="M0 30H7.99305V26.5782H3.75346V3.42165H7.99322V0H0V30Z" fill="#EDE3C8"/>
<path d="M82.0068 30H90V0H82.0068V3.42165H86.2464V26.5782H82.0068V30Z" fill="#EDE3C8"/>
<path d="M8.39051 20.3486C9.90144 21.7838 12.0211 22.7258 15.0656 22.7258C19.1021 22.7258 21.3347 20.7298 21.3347 17.7246C21.3347 14.3382 17.9069 13.6205 15.4264 13.1046C13.7577 12.7907 12.833 12.5215 12.833 11.7366C12.833 11.0862 13.3292 10.5704 14.6146 10.5704C15.945 10.5704 17.5912 11.0862 18.8541 12.1179L20.9739 9.35934C19.3728 7.99121 17.2756 7.27368 14.8627 7.27368C11.0065 7.27368 8.86437 9.44901 8.86437 11.9609C8.86437 15.5044 12.3371 16.1323 14.8176 16.6256C16.4187 16.962 17.3885 17.2985 17.3885 18.1508C17.3885 18.8685 16.5766 19.4293 15.2462 19.4293C13.4452 19.4303 11.7177 18.7203 10.4426 17.4556L8.39051 20.3486Z" fill="#EDE3C8"/>
<path d="M23.1387 16.4014C23.1387 20.0794 25.3035 22.7258 30.1293 22.7258C34.9551 22.7258 37.0975 20.1018 37.0975 16.379V7.49785H33.1511V16.2669C33.1511 18.0386 32.2039 19.3169 30.1293 19.3169C28.0321 19.3169 27.0849 18.0386 27.0849 16.2669V7.49785H23.1387V16.4014Z" fill="#EDE3C8"/>
<path d="M39.8035 22.4566H50.8305V19.2048H43.6821V16.5135H50.6729V13.2392H43.6821V10.7499H50.8305V7.49785H39.8035V22.4566Z" fill="#EDE3C8"/>
<path d="M53.0858 22.4566H59.4225C64.1357 22.4566 67.5409 19.6085 67.5409 14.966C67.5409 10.3236 64.1357 7.49785 59.4 7.49785H53.0858V22.4566ZM56.9642 19.0927V10.862H59.4225C62.1737 10.862 63.572 12.656 63.572 14.966C63.572 17.1862 62.0383 19.0927 59.4 19.0927H56.9642Z" fill="#EDE3C8"/>
<path d="M69.4803 22.4566H80.5073V19.2048H73.3587V16.5135H80.3496V13.2392H73.3587V10.7499H80.5073V7.49785H69.4803V22.4566Z" fill="#EDE3C8"/>
</svg>
