<svg width="94" height="32" viewBox="0 0 94 32" fill="none" xmlns="http://www.w3.org/2000/svg">
<path d="M67.086 0.195215C67.7595 0.165488 69.5617 0.142429 70.192 0.190735L70.1964 8.68806C70.1975 9.77718 70.1374 12.1594 70.2456 13.1665L68.3916 13.1723C68.3473 10.8071 68.3238 8.4415 68.3211 6.07582C68.3118 4.8745 68.2435 3.27516 68.32 2.11325C67.6612 2.16161 66.4157 2.12806 65.7138 2.1297L60.4953 2.14161L45.0027 2.2227C35.412 2.31702 25.8208 2.34839 16.2298 2.31669C11.4814 2.33287 6.64262 2.42303 1.90159 2.3815C1.93338 2.83461 1.90929 3.50975 1.91246 3.9874L1.93999 7.25603C1.985 10.3879 2.00991 13.5202 2.01472 16.6524C3.21361 16.5828 4.81225 16.6736 6.06374 16.646C10.9283 16.5391 15.9055 16.693 20.7638 16.5716L27.4435 16.5576C28.4354 16.5569 30.1282 16.6047 31.0697 16.5052L31.0815 18.2688C27.4739 18.2193 23.6557 18.3264 20.0376 18.367L8.70127 18.423C6.75624 18.4512 4.81105 18.4687 2.8658 18.4751C1.97484 18.4802 0.989654 18.5145 0.107 18.4842C-0.00165212 14.0479 0.0930156 9.5821 0.0256612 5.1427C0.00310046 3.65614 -0.0273264 2.04598 0.0475665 0.566909C11.8213 0.576527 23.595 0.520735 35.368 0.399533L67.086 0.195215Z" fill="currentColor"/>
<path d="M91.6579 0.0304913C92.349 0.0255733 93.04 0.0154645 93.731 0L93.7343 17.7944C92.2233 17.7375 90.2508 17.8099 88.707 17.8208L77.0235 17.9285L36.5773 18.2659C36.5079 17.7422 36.5293 16.7972 36.5285 16.2421L36.5265 12.7545C36.5223 10.8971 36.3868 8.8894 36.4304 7.063C35.6049 7.07492 34.7791 7.07667 33.9535 7.06836L33.9556 5.56803C34.631 5.52082 35.6321 5.5394 36.3282 5.53284L40.7628 5.49366L40.7627 7.00984L38.2507 6.99983C38.3169 8.52481 38.2705 10.3415 38.2702 11.8878L38.2718 16.3417C38.9702 16.3095 39.8374 16.3411 40.5521 16.3356L45.2016 16.2973L58.5155 16.2281L91.9677 16.0466C91.9196 15.2954 91.9551 14.1438 91.948 13.355L91.918 7.26355L91.8863 3.7065C91.8852 3.2071 91.865 2.45071 91.9174 1.96956L74.8925 2.01623C74.8729 1.35841 74.863 0.805792 74.8893 0.149672C76.8356 0.184207 78.812 0.132732 80.7638 0.122678L91.6579 0.0304913Z" fill="currentColor"/>
<path d="M26.8912 5.6489C27.9771 5.61535 30.5927 5.52168 31.5621 5.78201C33.9286 6.41759 34.3133 9.57983 32.0374 10.8993C32.5565 11.7951 33.074 12.4087 33.6084 13.3952C33.2034 13.4082 32.7786 13.4083 32.3718 13.4139L31.7073 13.4034C31.2445 12.6855 30.6289 11.9173 30.2318 11.194C29.6913 11.2296 29.1493 11.2374 28.6079 11.2173C28.7131 12.0074 28.6905 12.6279 28.6796 13.4251C28.0709 13.4078 27.3802 13.4244 26.7648 13.4246C26.7352 11.8444 26.7245 10.2639 26.7327 8.68349C26.7319 7.77535 26.7142 6.82868 26.7581 5.9195C26.7662 5.75026 26.7733 5.75086 26.8912 5.6489ZM28.5708 9.79218C29.4707 9.79103 30.5542 9.95617 31.2589 9.40617C31.7188 8.73289 31.9904 7.98157 31.1584 7.42021C30.4679 6.95436 29.3772 7.05677 28.5721 7.06901C28.573 7.92846 28.5997 8.94567 28.5708 9.79218Z" fill="currentColor"/>
<path d="M50.963 5.37538C52.1833 5.2874 53.4255 5.33943 54.6393 5.51817C56.0039 5.6974 57.1161 6.61746 57.1516 8.06582C57.2008 10.048 55.8433 11.0131 53.9844 11.0732C53.3846 11.0835 52.7848 11.0796 52.185 11.0613C52.12 11.8139 52.1746 12.572 52.3472 13.3073C51.9036 13.3258 50.833 13.4551 50.461 13.3294C50.2485 12.9886 50.3217 6.33276 50.3522 5.46205C50.5314 5.42888 50.7778 5.40145 50.963 5.37538ZM52.1658 9.63309C52.835 9.63314 53.9958 9.73074 54.5388 9.41358C55.3855 8.86199 55.3183 8.67571 55.2593 7.73872C54.4378 6.76773 53.9144 6.89713 52.7143 6.91495C52.5411 6.91363 52.3254 6.88746 52.1915 6.98418C52.1216 7.40593 52.1806 9.08609 52.1658 9.63309Z" fill="currentColor"/>
<path d="M77.5125 5.19861C77.8916 5.30702 78.7929 5.2561 79.1988 5.22189L79.2054 13.1093C78.7104 13.1155 78.2565 13.098 77.7621 13.0774C77.4988 12.7406 77.1738 12.4104 76.8914 12.0777L74.9576 9.772C74.6156 9.3626 74.1896 8.88112 73.8979 8.44631C73.8804 9.51353 73.9104 10.6014 73.8973 11.6686C73.8935 11.9735 73.9192 12.8167 73.8755 13.083L73.7515 13.107C73.0938 13.096 72.7146 13.0811 72.0711 13.1915C72.0132 11.1964 72.064 9.18653 72.0449 7.18992C72.0384 6.55385 72.0406 5.89899 72.0892 5.26577C72.388 5.25741 72.796 5.23806 73.0867 5.25855C73.8525 5.3126 74.5861 6.46183 75.0548 7.02549C75.8546 7.99708 76.6609 8.96353 77.4732 9.92467C77.4666 9.22571 77.3972 5.6691 77.5125 5.19861Z" fill="currentColor"/>
<path d="M20.646 5.68113C21.0689 5.64965 22.0706 5.66222 22.4813 5.68157C22.7697 6.13648 23.3372 7.54993 23.5946 8.08566C24.4259 9.81637 25.1701 11.6781 25.9808 13.4129L23.9763 13.4223C23.7747 12.8937 23.5416 12.3157 23.3779 11.7798C23.1724 11.7955 22.9386 11.8009 22.7303 11.8103C21.9568 11.8061 20.4126 11.8823 19.7106 11.7964C19.6161 12.2288 19.3431 13.0156 19.2023 13.4636C18.626 13.5045 17.8315 13.4852 17.239 13.4875C18.1121 11.5466 18.9166 9.47025 19.8234 7.53381C20.0838 6.9779 20.3573 6.149 20.646 5.68113ZM20.3706 10.4368C20.783 10.4171 21.1334 10.4079 21.5479 10.4116C21.9621 10.4133 22.3762 10.4127 22.7903 10.4099C22.4872 9.91763 21.7558 7.74621 21.591 7.58375C21.1994 8.54086 20.8459 9.51943 20.3706 10.4368Z" fill="currentColor"/>
<path d="M82.0022 5.16859C82.2611 5.15006 82.5911 5.11383 82.8156 5.24755C82.9773 5.64755 82.874 8.16012 82.8549 8.74121C83.954 7.73438 85.0869 6.30345 86.2696 5.19821C86.9328 5.16815 87.6096 5.19023 88.2738 5.20313C87.8844 5.64853 85.3699 8.38307 85.217 8.66105C85.3115 8.94526 87.1917 11.2765 87.4938 11.631C87.9166 12.1407 88.1061 12.502 88.6136 13.0084C87.8893 13.0143 87.1644 13.0133 86.44 13.0054C86.0008 12.5992 84.2522 10.4801 83.9332 9.9722C83.5678 10.3977 83.2843 10.7388 82.8691 11.1145C82.9188 11.7566 82.9008 12.4444 82.8866 13.0874C82.366 13.1313 81.5936 13.1084 81.0533 13.1072C81.0222 12.256 80.8468 5.5087 81.0785 5.23957C81.3401 5.14946 81.7159 5.16963 82.0022 5.16859Z" fill="currentColor"/>
<path d="M57.547 24.162C58.798 24.1606 60.6476 23.9488 61.6342 24.8048C63.4254 26.358 63.4363 28.3113 61.9898 30.1151C61.9745 30.1323 61.9592 30.149 61.9434 30.1653C60.7536 31.3637 59.1733 31.087 57.5492 31.0797C57.4471 29.6385 57.5536 28.0866 57.5137 26.6366C57.4924 25.8441 57.5022 24.9523 57.547 24.162ZM59.0438 29.6402C59.3885 29.6412 59.7332 29.6396 60.0779 29.6356C60.3324 29.4526 60.5498 29.2958 60.788 29.093C61.9406 27.822 61.3851 25.8764 59.6452 25.5993C59.4759 25.5723 59.2208 25.5807 59.0438 25.5801C59.0449 26.8684 59.0859 28.3705 59.0438 29.6402Z" fill="currentColor"/>
<path d="M41.5754 5.49114C42.1632 5.4659 42.81 5.49858 43.403 5.51721C43.2813 6.96972 43.3927 8.58907 43.3607 10.056C43.351 10.5039 43.5398 11.0366 43.8173 11.3911C44.326 12.0413 45.695 11.9764 46.2577 11.4647C46.4705 11.2674 46.6174 11.0094 46.6786 10.7256C46.7889 10.2352 46.7469 9.28803 46.7469 8.74459C46.7469 7.65568 46.7168 6.59617 46.7671 5.50453C47.1872 5.46191 48.1164 5.49868 48.5752 5.50486L48.5774 7.03797C48.5736 8.21218 48.6495 9.58737 48.5561 10.7156C48.2562 13.1281 45.8004 13.8741 43.762 13.2719C42.7231 12.965 41.5019 11.786 41.5561 10.7545C41.6087 9.75256 41.335 6.22382 41.5754 5.49114Z" fill="currentColor"/>
<path d="M6.92837 5.65773C8.06859 5.58636 9.26452 5.6015 10.2328 6.27385C10.0865 6.73319 9.99685 7.17822 9.76971 7.59658C8.66451 7.37975 7.28891 6.5692 6.297 7.51614C6.12995 7.67565 6.06696 7.73226 6.05364 7.96986C6.40237 9.39937 10.7579 8.60669 10.6948 11.1731C10.6465 13.1394 8.95102 13.6429 7.30944 13.7169C6.30841 13.7013 4.89053 13.4601 4.09009 12.8444L4.68694 11.4425C6.00065 12.102 7.75072 12.8177 8.87755 11.509C8.80463 11.325 8.70176 11.1484 8.60644 10.9743C7.47103 10.2892 5.99497 10.3746 4.95171 9.63101C4.0401 8.98122 3.97625 7.48685 4.72102 6.6639C5.3949 5.91937 5.95176 5.76319 6.92837 5.65773Z" fill="currentColor"/>
<path d="M42.3694 24.1141C43.9922 23.9239 45.393 24.4696 45.6949 26.1952C45.2342 26.2504 44.7187 26.2287 44.2514 26.2222C43.6658 24.794 41.8156 25.3228 41.8971 26.0761C42.4296 27.2006 45.7111 26.7017 45.8995 28.6641C46.0617 30.3536 44.7406 31.072 43.2661 31.2622C42.0323 31.2466 40.6564 30.8363 40.1951 29.5574C40.1217 29.3539 40.0315 29.044 40.1267 28.8387C40.3946 28.6873 41.2221 28.7831 41.5604 28.8043C41.6761 29.1622 41.7037 29.3022 42.0288 29.6031C42.4764 30.1087 44.5427 30.0614 44.2325 29.081C43.9668 28.2415 41.8667 28.1732 41.1367 27.6487C40.1225 26.9201 40.0876 26.0875 40.6432 25.0514C40.9549 24.4701 41.7873 24.2431 42.3694 24.1141Z" fill="currentColor"/>
<path d="M31.7531 24.1193C32.0416 24.1992 32.8922 24.1562 33.224 24.1461C33.1564 25.6478 33.2225 27.2743 33.1875 28.7999C33.7522 29.6478 33.9206 29.6362 34.8848 29.6578C35.1725 29.5099 35.2679 29.4529 35.5215 29.2529C35.9972 28.2367 35.7485 25.5072 35.8349 24.1701C36.3741 24.1675 36.9132 24.1588 37.4522 24.1441C37.4104 24.5818 37.4225 25.1395 37.4198 25.5869C37.3937 27.5429 37.9595 30.0768 35.73 30.962C34.9035 31.2939 33.9785 31.2799 33.1624 30.9232C31.0341 29.9975 31.8326 27.712 31.6786 25.8794C31.6502 25.5417 31.6411 24.3742 31.7531 24.1193Z" fill="currentColor"/>
<path d="M10.8259 5.71948C13.0613 5.77314 15.4455 5.74134 17.6873 5.72309C17.6994 6.20577 17.73 6.71298 17.7516 7.19746C17.183 7.15506 15.8594 7.21637 15.2203 7.22997C15.2789 8.37697 15.2344 9.89347 15.2342 11.0681C15.232 11.8408 15.2115 12.7249 15.292 13.4833L13.4007 13.4826C13.3546 12.1976 13.3257 10.9121 13.3142 9.62631C13.3032 8.87079 13.2686 7.96298 13.3152 7.22396L10.8372 7.22976C10.8159 6.69134 10.8009 6.25653 10.8259 5.71948Z" fill="currentColor"/>
<path d="M61.7217 5.35362C62.2488 5.31285 63.0109 5.34662 63.5577 5.35668C63.426 6.76351 63.568 8.5752 63.5222 10.0283C63.5058 10.5632 63.5533 11.0981 63.4943 11.6383C64.8813 11.7408 66.1399 11.5648 67.4471 11.6339C67.4482 12.1359 67.4624 12.6988 67.4192 13.1946C66.9314 13.2531 65.917 13.2251 65.3997 13.2247L61.7228 13.2212C61.6916 12.8676 61.6791 12.4331 61.6878 12.0789C61.7446 9.86383 61.6031 7.56083 61.7217 5.35362Z" fill="currentColor"/>
<path d="M53.0228 24.1604C53.6341 24.1662 54.265 24.1819 54.873 24.1399C54.2558 24.9101 53.5604 26.0275 52.9311 26.8725C52.0177 28.1715 52.3258 29.5211 52.3269 31.0744L50.8378 31.0784C50.7608 30.1516 50.7952 28.8162 50.8083 27.8673C50.3407 27.0899 48.5506 24.7355 48.3812 24.1611C51.1284 24.1283 50.1702 24.6878 51.626 26.4913C52.0401 25.7172 52.5634 24.9208 53.0228 24.1604Z" fill="currentColor"/>
</svg>
