<svg width="101" height="35" viewBox="0 0 101 35" fill="none" xmlns="http://www.w3.org/2000/svg">
<g clip-path="url(#clip0_660_497)">
<path d="M42.1795 11.9444H40.2727V11.7014H40.9314V7.88192H39.614V8.40275H39.302V7.36108H39.614V7.5347H42.8729V7.36108H43.1849V8.40275H42.8729V7.88192H41.5555V11.7014H42.2142C42.1795 11.7014 42.1795 11.9444 42.1795 11.9444ZM48.2118 11.9444H46.6171V11.7014H47.1024V9.86108H44.6063V11.7014H45.0917V11.9444H43.4969V11.7014H43.9823V7.81247H43.4969V7.56942H45.0917V7.81247H44.6063V9.58331H47.1024V7.81247H46.6171V7.56942H48.2118V7.81247H47.6918V11.7014H48.2118V11.9444ZM51.8174 11.9444H48.8012V11.7014H49.2866V7.81247H48.8012V7.56942H51.436V7.39581H51.748V8.43747H51.436V7.88192H49.8759V9.58331H51.124V9.0972H51.436V10.4166H51.124V9.89581H49.8759V11.6666H51.5054V11.0764H51.8174V11.9444ZM58.3698 7.81247H57.8844V10.3472C57.8844 11.0416 57.6417 11.5278 57.087 11.8055C56.8097 11.9444 56.4977 12.0486 56.151 12.0486C55.1802 12.0486 54.4869 11.4236 54.4869 10.5208V7.81247H54.0015V7.56942H55.5963V7.81247H55.1109V10.3125C55.1109 11.1111 55.5963 11.6319 56.3243 11.6319C57.087 11.6319 57.6071 11.0764 57.6071 10.2778V7.77775H57.1217V7.5347H58.4738L58.3698 7.81247ZM62.4607 12.0139H62.2526L59.6872 8.50692V11.7014H60.2072V11.9444H58.8551V11.7014H59.3752V8.05553L59.2018 7.81247H58.7511V7.56942H59.7218L62.1486 10.9028V7.81247H61.6286V7.56942H62.9807V7.81247H62.4953L62.4607 12.0139ZM65.0261 11.9444H63.4314V11.7014H63.9167V7.81247H63.4314V7.56942H65.0261V7.81247H64.5408V11.7014H65.0261V11.9444ZM67.6956 12.0486H67.4876L65.8235 7.77775H65.4422V7.5347H67.1063V7.77775H66.4822L67.765 11.0416L69.0477 7.77775H68.597V7.5347H69.7411V7.77775H69.3944L67.6956 12.0486ZM73.1386 11.9444H70.1224V11.7014H70.6078V7.81247H70.1224V7.56942H72.7573V7.39581H73.0693V8.43747H72.7573V7.88192H71.1972V9.58331H72.4452V9.0972H72.7573V10.4166H72.4452V9.89581H71.1972V11.6666H72.8266V11.0764H73.1386V11.9444ZM77.6109 11.9444H77.0562C76.6748 11.9444 76.6055 11.9097 76.3628 11.5625L75.3574 9.99997H74.8374V11.7361H75.3227V11.9791H73.728V11.7361H74.2133V7.81247H73.728V7.56942H75.5654C76.2241 7.56942 76.5708 7.74303 76.7788 8.15969C76.8482 8.33331 76.9175 8.54164 76.9175 8.74997C76.9175 9.40969 76.5708 9.79164 75.9121 9.89581L76.8828 11.3889C77.0562 11.6319 77.1602 11.7014 77.2988 11.7014H77.5415V11.9444H77.6109ZM74.8374 9.65275H75.4614C75.9814 9.65275 76.3281 9.27081 76.3281 8.74997C76.3281 8.19442 76.0161 7.84719 75.4614 7.84719H74.8374V9.65275ZM78.4429 12.0139H78.1309V10.8333H78.4429V11.3541C78.8589 11.6319 79.0323 11.7014 79.3096 11.7014C79.8297 11.7014 80.211 11.4236 80.211 11.0069C80.211 10.625 79.9683 10.3472 79.2403 9.96525C78.4082 9.51386 78.1309 9.20136 78.1309 8.64581C78.1309 7.98608 78.6856 7.49997 79.4483 7.49997C79.795 7.49997 80.0377 7.56942 80.2457 7.67358V7.43053H80.5577V8.57636H80.2457V8.09025C79.899 7.84719 79.7257 7.81247 79.483 7.81247C79.0323 7.81247 78.7549 8.09025 78.7549 8.50692C78.7549 8.85414 78.9629 9.02775 79.795 9.51386C80.627 9.99997 80.8697 10.2778 80.8697 10.8333C80.8697 11.5278 80.315 12.0486 79.5523 12.0486C79.1363 12.0486 78.8589 11.9791 78.5122 11.7361L78.4429 12.0139ZM82.9845 11.9444H81.3897V11.7014H81.8751V7.81247H81.3897V7.56942H82.9845V7.81247H82.4991V11.7014H82.9845V11.9444ZM86.3127 11.9444H84.4059V11.7014H85.0646V7.88192H83.7472V8.40275H83.4352V7.36108H83.7472V7.5347H87.0061V7.36108H87.3181V8.40275H87.0061V7.88192H85.654V11.7014H86.3127V11.9444ZM90.5076 11.9444H88.9128V11.7014H89.3982V9.93053L88.0115 7.81247H87.6301V7.56942H89.2595V7.81247H88.6702L89.8142 9.54858L90.8543 7.81247H90.2649V7.56942H91.5823V7.81247H91.2356L89.9529 9.89581V11.7014H90.4729V11.9444H90.5076ZM93.3504 9.75692C93.3504 8.50692 94.3212 7.46525 95.4999 7.46525C96.644 7.46525 97.6147 8.50692 97.6147 9.75692C97.6147 11.0069 96.644 12.0486 95.4999 12.0486C94.3212 12.0139 93.3504 11.0069 93.3504 9.75692ZM94.0091 9.75692C94.0091 10.868 94.6332 11.7014 95.4999 11.7014C96.3666 11.7014 96.956 10.868 96.956 9.75692C96.956 8.64581 96.3319 7.81247 95.4999 7.81247C94.6332 7.81247 94.0091 8.61108 94.0091 9.75692ZM99.6255 11.9444H98.0307V11.7014H98.5161V7.81247H98.0307V7.56942H100.666V7.39581H100.978V8.43747H100.666V7.88192H99.1054V9.58331H100.354V9.0972H100.666V10.4166H100.354V9.89581H99.1054V11.7361H99.5908L99.6255 11.9444Z" fill="#C9C2B7"/>
<path d="M40.0994 26.1458H39.2673V22.9861H40.0994V24.375C41.1741 25.1041 41.6248 25.2778 42.4222 25.2778C43.8089 25.2778 44.7797 24.5486 44.7797 23.4375C44.7797 22.4305 44.0863 21.7014 42.2142 20.7291C39.9954 19.5833 39.2673 18.6805 39.2673 17.2569C39.2673 15.5208 40.7234 14.2361 42.6995 14.2361C43.5662 14.2361 44.225 14.4097 44.7797 14.7222V14.0972H45.577V17.0833H44.7797V15.8333C43.8783 15.243 43.4622 15.0694 42.7342 15.0694C41.5555 15.0694 40.7581 15.7986 40.7581 16.875C40.7581 17.7778 41.2781 18.2986 43.4622 19.5486C45.6464 20.7986 46.2704 21.5972 46.2704 23.0208C46.2704 24.8611 44.7797 26.25 42.7689 26.25C41.6595 26.25 40.9314 26.0069 40.0647 25.4514L40.0994 26.1458ZM54.1055 26.0069H49.9453V25.3472H51.2627V20.6597L47.6225 15.0694H46.6171V14.4097H50.9507V15.0694H49.3559L52.3721 19.6875L55.1456 15.0694H53.5508V14.4097H57.0524V15.0694H56.151L52.7881 20.5555V25.3472H54.1055V26.0069ZM57.9191 26.0069V25.3472H59.2365V15.0694H57.9191V14.4097H63.0847C66.2395 14.4097 68.805 17.0139 68.805 20.1736C68.805 23.4028 66.2742 25.9722 63.05 25.9722H57.9191V26.0069ZM60.7619 25.1389H62.8767C65.2688 25.1389 67.1063 23.0208 67.0716 20.243C67.0716 17.5347 65.1995 15.3472 62.9114 15.3472H60.7619V25.1389ZM78.9283 26.1805H78.3736L71.6479 16.9097V25.3472H72.9653V26.0069H69.4291V25.3472H70.7465V15.7291L70.2611 15.0694H69.0477V14.4097H71.5785L78.0269 23.2291V15.0694H76.7095V14.4097H80.2457V15.0694H78.9283V26.1805ZM89.3982 26.0069H81.4244V25.3472H82.7418V15.0694H81.4244V14.4097H88.4275V13.9236H89.2249V16.7014H88.4275V15.2083H84.2672V19.7222H87.5608V18.4028L88.3581 18.368V21.8403L87.5608 21.875V20.5208H84.2672V25.2083H88.5662V23.6805H89.3635C89.3982 23.6805 89.3982 26.0069 89.3982 26.0069ZM98.0307 26.0069H93.8705V25.3472H95.1879V20.6597L91.5477 15.0694H90.5423V14.4097H94.8759V15.0694H93.2811L96.2973 19.6875L99.0708 15.0694H97.476V14.4097H100.978V15.0694H100.076L96.7133 20.5555V25.3472H98.0307V26.0069Z" fill="#C9C2B7"/>
<path d="M17.3221 22.7431H19.9223V22.3611H17.3221V22.7431ZM17.3221 23.8194H19.9223V23.4375H17.3221V23.8194ZM17.3221 21.6667H19.9223V21.2847H17.3221V21.6667ZM15.4847 22.3611H12.8845V22.7431H15.4847V22.3611ZM15.4847 23.4375H12.8845V23.8194H15.4847V23.4375ZM15.4847 21.2847H12.8845V21.6667H15.4847V21.2847ZM19.5756 14.4097C18.5355 14.3403 17.4608 14.3403 16.3861 14.3403C15.346 14.3403 14.2713 14.375 13.2312 14.4097V19.6528H3.24665C3.66267 22.1528 4.66806 24.5139 6.15881 26.4583C6.36682 26.1806 6.67884 26.0069 7.0602 26.0069H13.2659V31.4583C14.2713 31.7361 15.346 31.875 16.4207 31.875C17.5301 31.875 18.5702 31.7361 19.5756 31.4583V26.0069H25.7813C26.1626 26.0069 26.4746 26.1806 26.6827 26.4583C28.1387 24.5139 29.1788 22.1528 29.5948 19.6528H19.5756V14.4097ZM14.5833 16.0417L15.9354 16.6667L16.4207 15.2778L16.9061 16.7014L18.2235 16.0417L17.5648 17.3958L18.9515 17.8819L17.5301 18.3681L18.1888 19.6875L16.8368 19.0625L16.3514 20.4514L15.8314 19.0278L14.5833 19.7222L15.2073 18.3681L13.8206 17.8819L15.242 17.3958C15.2073 17.3611 14.5833 16.0417 14.5833 16.0417ZM9.83369 24.6875L8.51628 24.0278L8.03092 25.4514L7.54556 24.0625L6.19348 24.6875L6.85219 23.3681L5.43077 22.8819L6.81752 22.3958L6.15881 21.0417L7.47622 21.7014L7.96158 20.2778L8.44694 21.6667L9.79902 21.0417L9.14032 22.3611L10.5617 22.8819L9.17498 23.3681L9.83369 24.6875ZM11.9831 24.5833H11.3938V24.1667H11.9831V24.5833ZM11.9831 23.4375H11.3938V23.0208H11.9831V23.4375ZM11.9831 22.2917H11.3938V21.875H11.9831V22.2917ZM11.9831 21.1111H11.3938V20.6944H11.9831V21.1111ZM12.2952 24.5833V20.4167H15.1033C15.6927 20.4167 16.1434 20.8681 16.1434 21.4583V24.9306C15.9354 24.6875 15.658 24.5486 15.346 24.5486C15.2767 24.5833 13.1272 24.5833 12.2952 24.5833ZM18.2235 30L16.8714 29.375L16.3861 30.7639L15.866 29.3403L14.5833 30L15.242 28.6458L13.8553 28.1597L15.2767 27.6389L14.5833 26.3194L15.9354 26.9444L16.4207 25.5556L16.9408 26.9792L18.2582 26.3194L17.6341 27.6736L19.0209 28.1597L17.5995 28.6806L18.2235 30ZM22.9384 21.0069L24.2905 21.6319L24.7759 20.2431L25.2959 21.6667L26.6133 21.0069L25.9546 22.3611L27.3414 22.8472L25.9199 23.3333L26.5786 24.6528L25.2266 24.0278L24.7412 25.4167L24.2905 24.0278L22.9731 24.6875L23.6318 23.3333L22.2451 22.8472L23.6665 22.3264C23.5971 22.3264 22.9384 21.0069 22.9384 21.0069ZM20.8237 20.6944H21.413V21.1111H20.8237V20.6944ZM20.8237 21.8403H21.413V22.2569H20.8237V21.8403ZM20.8237 22.9861H21.413V23.4028H20.8237V22.9861ZM20.8237 24.1667H21.413V24.5833H20.8237V24.1667ZM20.5116 20.4167V24.5833H17.4955C17.1834 24.5833 16.8714 24.7222 16.6981 24.9653V21.4931C16.6981 20.9028 17.1488 20.4514 17.7381 20.4514H17.9115C17.8768 20.4167 20.5116 20.4167 20.5116 20.4167ZM25.6426 2.70833C23.0771 2.15278 19.6796 1.63194 16.3861 1.63194C11.4631 1.63194 6.29749 2.84722 4.00936 3.47222C3.55866 3.57639 3.21198 3.68056 3.00397 3.75V14.9306C4.49472 14.6875 10.5964 13.75 16.3861 13.75C22.1757 13.75 28.2774 14.6875 29.7682 14.9306V3.71528C29.5602 3.64583 29.2481 3.57639 28.7628 3.4375C28.0347 3.26389 26.9253 2.98611 25.6426 2.70833ZM11.6711 3.88889C11.8791 3.85417 11.4284 3.50694 11.7058 3.50694C11.8791 3.50694 12.5032 3.50694 12.9539 3.75C13.0579 3.78472 13.0925 3.61111 13.2659 3.50694C13.2659 3.50694 13.3352 3.47222 13.3699 3.50694C13.5432 3.61111 13.6126 3.78472 13.7166 3.75C14.1673 3.54167 14.7913 3.54167 14.9646 3.50694C15.2767 3.47222 14.826 3.81944 14.9993 3.88889C16.0394 4.13194 16.8021 5 16.8021 6.07639C16.8021 6.38889 16.7328 6.66667 16.6287 6.94444C16.5594 7.08333 16.4207 6.66667 16.3514 6.90972C16.3167 7.32639 16.2127 7.63889 15.97 8.09028C15.762 8.50694 15.3807 7.63889 15.2767 7.88195C15.0687 8.29861 14.618 8.4375 14.2713 8.50694C14.2366 8.50694 14.2019 8.50694 14.2366 8.47222C14.2366 8.47222 14.3406 8.36806 14.3406 8.22917C14.3406 8.22917 14.3406 8.19444 14.3753 8.15972C14.618 8.05556 14.826 7.8125 14.8606 7.53472C14.93 7.29167 15.034 6.90972 15.1727 6.66667C15.45 6.18056 15.1033 5.55556 15.2073 5.41667C15.4153 5.27778 15.5193 5.06944 15.5193 4.82639C15.5193 4.44444 15.2073 4.09722 14.7913 4.09722C14.5833 4.09722 14.3753 4.20139 14.2713 4.34028L14.2366 4.375C14.1673 4.44444 14.0979 4.51389 14.0633 4.58333C13.9939 4.65278 14.0286 4.82639 14.1326 4.86111C14.618 5 14.93 6.07639 14.722 6.42361C14.618 6.59722 14.3753 7.1875 14.3753 7.32639C14.3753 7.53472 14.2019 7.70833 13.9939 7.70833C13.8206 7.70833 13.6819 7.60417 13.6126 7.46528C13.7512 7.39583 14.0286 7.1875 14.0286 7.01389L13.9593 6.42361C14.2019 6.38889 14.3059 6.25 14.3406 6.04167C14.3753 6.04167 14.3753 6.00694 14.41 6.00694C14.4793 5.9375 14.5486 5.72917 14.3753 5.76389C14.1326 5.79861 13.8553 5.79861 13.5779 5.86806C13.5432 5.86806 13.5086 5.90278 13.5086 5.9375C13.5086 5.97222 13.6472 6.70139 13.6819 6.875C13.6819 6.90972 13.6819 6.90972 13.6472 6.90972C13.5432 6.90972 13.3352 6.875 13.3006 6.875C13.2659 6.875 13.0579 6.875 12.9539 6.90972C12.9539 6.90972 12.9192 6.90972 12.9192 6.875C12.9539 6.70139 13.1272 5.97222 13.1272 5.97222V5.90278C13.0925 5.83333 12.3645 5.76389 12.2605 5.76389C12.2258 5.76389 12.1912 5.76389 12.1565 5.79861C12.0872 5.90278 12.2258 6.00694 12.2952 6.04167C12.3298 6.25 12.4338 6.38889 12.6765 6.42361C12.6765 6.45833 12.6072 7.01389 12.6072 7.01389C12.6072 7.22222 12.8845 7.36111 13.0579 7.46528L13.0925 7.5C13.0232 7.63889 12.8845 7.74306 12.7112 7.74306C12.5032 7.74306 12.3298 7.56945 12.3298 7.36111C12.3298 7.22222 12.0525 6.59722 11.9831 6.42361C11.7751 6.04167 12.0872 4.96528 12.6072 4.86111C12.7112 4.82639 12.7805 4.6875 12.6765 4.58333C12.4685 4.375 12.2258 4.09722 11.9138 4.09722C11.5325 4.09722 11.1858 4.40972 11.1858 4.82639C11.1858 5.27778 11.5325 5.34722 11.4978 5.48611C11.3591 5.90278 11.3591 6.35417 11.5325 6.66667C11.6711 6.875 11.7751 7.25695 11.8445 7.5C11.8791 7.77778 12.0525 7.98611 12.2605 8.125C12.3645 8.19444 12.3298 8.26389 12.3645 8.36806C12.3992 8.40278 12.4338 8.4375 12.4338 8.47222C12.4685 8.50694 12.4338 8.50694 12.3992 8.50694C12.0525 8.47222 11.5671 8.33333 11.3591 7.88195C11.2551 7.63889 10.8737 8.47222 10.6657 8.09028C10.4231 7.67361 10.3191 7.32639 10.2497 6.90972C10.1804 6.66667 10.0417 7.08333 9.97236 6.94444C9.86836 6.66667 9.79902 6.38889 9.79902 6.07639C9.86836 5 10.6311 4.13194 11.6711 3.88889ZM14.6526 4.61806V4.54861C14.6873 4.51389 14.7566 4.47917 14.826 4.47917C14.9993 4.47917 15.138 4.61806 15.138 4.79167C15.138 4.89583 15.1033 4.96528 15.034 5.03472C14.9993 5.06944 14.9646 5.03472 14.9646 5C14.8953 4.86111 14.7913 4.72222 14.6526 4.61806ZM13.9246 8.19444C13.8553 8.40278 13.5779 8.33333 13.4046 8.4375H13.3352C13.1965 8.29861 12.9192 8.36806 12.8152 8.15972C12.8152 8.15972 12.8152 8.09028 12.8499 8.09028C13.0579 8.05556 13.2312 7.98611 13.3699 7.8125C13.3699 7.8125 13.4046 7.77778 13.4392 7.8125C13.5432 7.95139 13.7166 8.02083 13.8899 8.05556C13.9246 8.125 13.9593 8.15972 13.9246 8.19444ZM11.8098 5.06944C11.8098 5.06944 11.7751 5.10417 11.7405 5.06944C11.6711 5 11.6365 4.93056 11.6365 4.82639C11.6365 4.65278 11.7751 4.51389 11.9485 4.51389C12.0178 4.51389 12.1218 4.54861 12.1565 4.61806C12.1912 4.65278 12.1565 4.6875 12.1565 4.6875C12.0178 4.75694 11.8791 4.89583 11.8098 5.06944ZM8.96697 9.16667C8.75896 9.16667 8.65495 9.23611 8.51628 9.34028C8.41227 9.40972 8.37761 9.20139 8.51628 8.81944C8.62029 8.50694 7.99625 8.33333 7.85758 8.47222C7.64956 8.64583 7.12953 8.95833 6.6095 8.40278C6.5055 8.29861 6.85219 8.33333 6.85219 8.22917C6.88685 8.09028 7.02553 8.02083 7.0602 7.95139C7.09487 7.91667 7.09487 7.84722 7.02553 7.8125C6.85219 7.74306 6.64417 7.53472 6.71351 7.1875C6.71351 7.15278 6.43616 7.11806 6.54017 7.04861C7.02553 6.59722 7.54556 6.875 7.75357 7.01389C7.78824 7.01389 7.85758 7.04861 7.85758 6.97917C7.85758 6.84028 7.78824 6.73611 8.10026 6.49306C8.16959 6.45833 7.92691 6.25 8.10026 6.25C9.10565 6.49306 8.65495 7.53472 8.86297 7.74306C9.24432 8.09028 10.1804 8.36806 11.0471 8.54167C11.1164 8.54167 11.3938 8.64583 11.4631 8.68056C12.1565 9.02778 12.6072 8.99306 12.9885 8.85417C13.1272 8.81944 13.0925 8.95833 13.0579 8.99306C11.6711 10.3125 10.5964 10 10.215 9.75694C9.9377 9.58333 9.41767 9.58333 9.17498 9.93056C9.14032 9.96528 9.07098 10 9.03631 9.89583C8.96697 9.65278 9.03631 9.47917 9.10565 9.27083C9.14032 9.20139 9.03631 9.16667 8.96697 9.16667ZM22.3144 10.4167C22.1411 10.5903 21.7944 10.7639 21.2743 10.7292C21.0663 10.7292 20.9277 10.7986 20.893 10.8333C20.8237 10.9028 20.8237 10.9375 20.8237 10.9722C20.789 11.0764 20.8237 11.2153 20.893 11.2847C20.9623 11.3542 20.9277 11.4236 20.8237 11.4236C20.7196 11.4583 20.6156 11.4583 20.4076 11.3542C20.3036 11.3194 20.269 11.3542 20.269 11.4236C20.2343 11.5278 20.3036 11.6667 20.4423 11.7708C20.5116 11.8403 20.5116 11.9097 20.373 11.9444C20.1649 12.0139 19.9916 11.9097 19.7143 11.7708C19.5409 11.6667 19.4022 11.6667 19.2982 11.8056C19.2289 11.875 19.2289 11.9444 19.2636 11.9792C19.3676 12.0833 19.4369 12.3264 19.1596 12.6736C19.0556 12.7778 18.9515 12.4653 18.8822 12.5C18.5009 12.6736 18.1888 12.4306 18.0502 12.2917C18.0155 12.2569 17.9808 12.2569 17.9115 12.2917C17.7035 12.4306 17.2874 12.6389 17.1488 12.2569C17.1141 12.1875 16.9061 12.3264 16.9061 12.2222C16.9061 11.5972 17.4608 11.4931 17.6688 11.4583C17.7381 11.4583 17.7381 11.4236 17.7035 11.3542C17.5995 11.2153 17.4955 11.0417 17.5648 10.8681C17.5995 10.7292 17.2528 10.6944 17.3915 10.625C18.1195 10.2778 18.5009 10.9375 18.6395 11.0069C18.8475 11.1111 19.7836 10.8333 19.8876 10.3125C19.9223 10.2083 19.6796 10.1736 19.4369 10.1042C19.4022 10.1042 19.3676 10.0347 19.4369 9.96528C19.9916 9.54861 20.4423 8.99306 21.4824 8.88889C21.621 8.88889 21.6557 8.99306 21.6557 9.02778C21.6904 9.20139 21.725 9.34028 21.7944 9.47917C21.933 9.79167 22.1064 10 22.3144 10.1389C22.3837 10.2431 22.3491 10.3472 22.3144 10.4167ZM26.5786 10.0694C26.6827 10.1042 26.6827 10.1736 26.6133 10.2431C26.544 10.3125 26.44 10.3472 26.1973 10.3472C26.0933 10.3472 26.0933 10.4167 26.0933 10.4514C26.0933 10.5556 26.232 10.6597 26.4053 10.6597C26.5093 10.6944 26.5093 10.7639 26.44 10.8333C26.3013 10.9722 26.0933 10.9722 25.7466 10.9722C25.4346 10.9722 25.1919 11.3542 25.3652 11.4931C25.5039 11.5972 25.7466 11.8403 25.5386 12.5C25.4692 12.7083 25.3652 12.3264 25.2612 12.3958C24.9839 12.5694 24.7759 12.3611 24.6372 12.2222C24.6025 12.1528 24.5332 12.1528 24.4985 12.2222C24.3945 12.3958 24.1172 12.7431 23.5625 12.4306C23.4585 12.3611 23.1811 12.6042 23.1811 12.5C23.0771 12.0486 23.3198 11.8056 23.4931 11.6667C23.5278 11.6667 23.5971 11.5625 23.4585 11.5625C23.2851 11.5625 23.0424 11.4931 23.0078 11.25C23.0078 11.2153 22.7651 11.2153 22.7651 11.1458C22.8344 10.8333 23.5278 10.5903 24.0132 10.9028C24.4292 11.1806 24.9492 10.2431 24.5679 9.82639C24.2905 9.51389 22.7304 10.3819 22.2104 9.27083C22.0024 8.81945 22.2797 8.4375 22.0371 8.40278C21.829 8.36806 20.8237 8.15972 19.7489 9.02778C17.9115 10.5208 15.9007 9.6875 15.4153 9.375C15.346 9.34028 15.2767 9.40972 15.3113 9.47917C15.3807 9.6875 15.346 9.86111 15.2767 10C15.0687 10.2778 14.41 10.5903 14.3059 10.625C13.5432 10.8681 13.6126 11.4583 13.6819 11.7014C13.7166 11.7708 13.6819 11.8403 13.5779 11.8056C13.3352 11.7708 12.8499 11.6319 12.6765 11.1458C12.6418 11.0764 12.6072 11.0764 12.5378 11.1458C12.2605 11.3542 12.3645 11.6667 12.4338 11.7708C12.4685 11.8403 12.4338 11.875 12.3645 11.875C12.0872 11.9097 11.9138 11.5972 11.6711 11.6319C11.5325 11.6319 11.3591 11.7708 11.2551 11.8403C11.2204 11.875 11.1858 11.9444 11.2204 12.0139C11.4978 12.8819 11.0471 12.9167 11.0124 12.8819C10.9778 12.8472 11.0124 12.7083 10.8737 12.7083C10.4231 12.7431 10.2844 12.4306 10.2497 12.1875C10.2497 12.1181 10.215 12.0833 10.1457 12.1181C9.97236 12.2569 9.52167 12.5 9.24432 12.1181C9.20965 12.0833 9.07098 12.1181 9.00164 12.1528C8.9323 12.1875 8.9323 12.0833 8.9323 12.0486C8.96697 11.5625 9.31366 11.3194 9.487 11.25C9.55634 11.2153 9.55634 11.1806 9.52167 11.1458C9.383 11.0417 9.10565 10.7986 9.20965 10.5556C9.20965 10.5208 9.00164 10.4167 9.03631 10.3819C9.59101 10 10.2497 10.625 10.3537 10.6944C10.4577 10.7639 10.9431 10.7986 12.1912 10.0694C12.9885 9.61806 13.4046 9.27083 13.6126 8.99306C13.6472 8.95833 13.6819 8.88889 13.7859 8.88889C14.2713 8.88889 14.7913 8.78472 15.1727 8.47222C15.242 8.40278 15.3113 8.4375 15.346 8.47222C16.074 8.95833 16.4207 7.88195 16.5594 7.36111C16.5941 7.25695 16.5941 7.1875 16.6981 7.15278C19.3329 7.29167 24.2905 7.25694 24.2905 7.25694C24.2905 7.25694 24.9492 7.29167 24.9146 6.90972C24.8799 6.25 22.1411 6.28472 20.1303 6.5625C19.4022 6.66667 18.3275 6.73611 17.7035 6.49306C17.4261 6.38889 17.2181 6.21528 17.1141 6.00694C16.9754 5.72917 17.0101 5.59028 17.0448 5.41667C17.0794 5.27778 17.1488 5.17361 17.2181 5.03472C17.7381 4.23611 18.9515 4.16667 19.2982 4.16667C19.3676 4.16667 19.4022 4.13194 19.4369 4.09722C19.4716 3.92361 19.6102 3.47222 20.1303 3.47222C20.269 3.47222 20.4076 3.40278 20.5116 3.36806C20.581 3.33333 20.6156 3.36806 20.581 3.40278C20.581 3.47222 20.5463 3.54167 20.477 3.61111C20.1303 3.92361 20.1649 4.0625 20.2343 4.09722C20.269 4.13194 20.3036 4.09722 20.3036 4.09722C21.3783 3.15972 22.0024 3.78472 22.1757 3.99306C22.2104 4.02778 22.2104 4.09722 22.1411 4.09722C21.413 4.27083 21.1357 4.89583 19.6449 4.79167C19.4716 4.79167 18.2582 4.72222 17.8768 5.27778C17.6688 5.59028 17.8075 5.90278 18.4662 6.04167C18.9515 6.14583 20.1303 5.97222 20.685 5.9375C21.205 5.90278 23.5625 5.59028 24.7759 5.9375C25.2959 6.07639 26.0586 6.49306 25.8853 7.29167C25.7813 7.77778 25.2959 7.98611 25.2959 7.98611C25.2959 7.98611 23.9438 8.92361 26.3706 8.95833C27.1333 8.95833 26.3706 9.58333 26.336 9.75694C26.336 9.89583 26.4746 10 26.5786 10.0694ZM22.1757 4.82639C22.1064 4.82639 22.0024 4.86111 21.8984 4.93056C21.6904 5.06944 20.8237 5.45139 20.5463 5C20.5463 5 21.1703 4.96528 21.5517 4.61806C21.5517 4.61806 21.9677 4.47917 22.2451 4.6875C22.2104 4.75694 22.2451 4.82639 22.1757 4.82639ZM16.4207 0C8.20426 0 0.0224609 2.1875 0.0224609 2.1875V13.125C0.0224609 22.9861 7.0602 33.2292 16.3861 35C26.0586 33.0903 32.7843 22.9861 32.7843 13.125V2.1875C32.7843 2.1875 25.9546 0 16.4207 0ZM30.3575 17.1181C30.3575 25.1389 24.2558 32.4306 16.4207 32.4306C8.55095 32.4306 2.44927 25.1389 2.44927 17.1181V3.29861L2.65728 3.22917C2.65728 3.22917 9.72968 1.04167 16.3861 1.04167C23.0424 1.04167 30.1149 3.22917 30.1149 3.22917L30.3229 3.29861V17.1181H30.3575Z" fill="#C9C2B7"/>
</g>
<defs>
<clipPath id="clip0_660_497">
<rect width="101" height="35" fill="white"/>
</clipPath>
</defs>
</svg>
