<svg width="61" height="61" viewBox="0 0 61 61" fill="none" xmlns="http://www.w3.org/2000/svg">
<path d="M18.6243 7.84391C20.3842 8.43779 22.058 9.26165 23.602 10.2941C25.784 9.73558 28.0279 9.45539 30.2802 9.46018C32.6063 9.46018 34.8503 9.75064 36.9538 10.2917C38.4972 9.2603 40.1701 8.43724 41.9291 7.84391C43.5618 7.28875 45.8878 6.38926 47.2698 7.91886C48.2068 8.9589 48.441 10.7017 48.6074 12.0322C48.7948 13.5173 48.8393 15.4521 48.3473 17.3729C50.2283 19.802 51.362 22.6996 51.362 25.8571C51.362 30.6404 48.7713 34.7935 44.9368 37.67C43.0905 39.0354 41.044 40.1069 38.8699 40.8463C39.3712 41.9941 39.6499 43.2637 39.6499 44.5965V51.6238C39.6499 52.245 39.4031 52.8408 38.9638 53.2801C38.5246 53.7194 37.9288 53.9662 37.3075 53.9662H23.253C22.6317 53.9662 22.0359 53.7194 21.5966 53.2801C21.1573 52.8408 20.9105 52.245 20.9105 51.6238V49.3025C18.6735 49.5765 16.7973 49.3329 15.2021 48.6559C13.5343 47.9485 12.3724 46.8523 11.4987 45.8029C10.6695 44.8097 9.7653 42.5703 8.45822 42.1346C8.1663 42.0374 7.89638 41.8837 7.66388 41.6822C7.43138 41.4806 7.24084 41.2353 7.10315 40.9601C6.82508 40.4044 6.77915 39.761 6.97547 39.1715C7.17178 38.5819 7.59426 38.0945 8.14996 37.8164C8.70566 37.5383 9.34907 37.4924 9.93863 37.6887C11.4987 38.2087 12.5153 39.3331 13.211 40.2373C14.3354 41.6896 15.2489 43.5869 17.0292 44.3435C17.7623 44.6551 18.8375 44.8589 20.5194 44.6293L20.9105 44.5497C20.9159 43.275 21.1814 42.0149 21.6906 40.8463C19.5165 40.1069 17.47 39.0354 15.6237 37.67C11.7891 34.7935 9.19843 30.6427 9.19843 25.8571C9.19843 22.7042 10.3298 19.809 12.2061 17.3823C11.7142 15.4615 11.7564 13.5219 11.9437 12.0345L11.9555 11.9455C12.1265 10.5822 12.3256 8.97764 13.2813 7.91886C14.6633 6.38926 16.9917 7.2911 18.622 7.84625L18.6243 7.84391Z" fill="#EDE3C8"/>
</svg>
