<svg width="61" height="61" viewBox="0 0 61 61" fill="none" xmlns="http://www.w3.org/2000/svg">
<path d="M48.0919 7.59375C49.4345 7.59375 50.7221 8.12709 51.6715 9.07646C52.6209 10.0258 53.1542 11.3134 53.1542 12.656V48.0919C53.1542 49.4345 52.6209 50.7221 51.6715 51.6715C50.7221 52.6209 49.4345 53.1542 48.0919 53.1542H12.656C11.3134 53.1542 10.0258 52.6209 9.07646 51.6715C8.12709 50.7221 7.59375 49.4345 7.59375 48.0919V12.656C7.59375 11.3134 8.12709 10.0258 9.07646 9.07646C10.0258 8.12709 11.3134 7.59375 12.656 7.59375H48.0919ZM46.8264 46.8264V33.4113C46.8264 31.2229 45.957 29.1241 44.4096 27.5767C42.8621 26.0292 40.7633 25.1598 38.5749 25.1598C36.4234 25.1598 33.9176 26.476 32.7026 28.4503V25.6408H25.6408V46.8264H32.7026V34.3479C32.7026 32.3989 34.2719 30.8043 36.2209 30.8043C37.1607 30.8043 38.0621 31.1776 38.7266 31.8422C39.3912 32.5067 39.7645 33.408 39.7645 34.3479V46.8264H46.8264ZM17.4146 21.6669C18.5423 21.6669 19.6239 21.2189 20.4214 20.4214C21.2189 19.6239 21.6669 18.5423 21.6669 17.4146C21.6669 15.0606 19.7685 13.1369 17.4146 13.1369C16.2801 13.1369 15.192 13.5876 14.3898 14.3898C13.5876 15.192 13.1369 16.2801 13.1369 17.4146C13.1369 19.7685 15.0606 21.6669 17.4146 21.6669ZM20.9328 46.8264V25.6408H13.9216V46.8264H20.9328Z" fill="#EDE3C8"/>
</svg>
